<?xml version="1.0" standalone="no"?>
<!DOCTYPE svg PUBLIC "-//W3C//DTD SVG 20010904//EN"
 "http://www.w3.org/TR/2001/REC-SVG-20010904/DTD/svg10.dtd">
<svg version="1.0" xmlns="http://www.w3.org/2000/svg"
 width="42.000000pt" height="42.000000pt" viewBox="0 0 42.000000 42.000000"
 preserveAspectRatio="xMidYMid meet">
<g transform="translate(0.000000,42.000000) scale(0.100000,-0.100000)"
fill="url(#paint0_linear)" stroke="none">
<path d="M184 355 c-4 -10 -14 -13 -29 -9 -17 4 -24 1 -27 -13 -2 -10 -12 -18
-23 -18 -15 0 -19 -6 -17 -22 2 -16 -2 -23 -14 -23 -12 0 -15 -6 -11 -22 4
-12 1 -28 -5 -35 -8 -9 -7 -18 3 -30 8 -9 14 -26 14 -37 0 -12 6 -21 15 -21 8
0 15 -9 15 -20 0 -15 7 -19 23 -18 14 2 22 -3 22 -13 0 -12 7 -14 30 -9 19 4
30 3 30 -4 0 -16 27 -13 34 4 3 8 15 14 28 12 14 -1 23 3 23 13 0 8 9 15 20
15 15 0 19 6 18 23 -2 14 3 22 13 22 12 0 14 7 9 30 -4 19 -3 30 4 30 6 0 11
7 11 15 0 8 -4 15 -8 15 -14 0 -32 -24 -32 -42 0 -32 -29 -77 -60 -93 -60 -31
-127 -14 -161 42 -60 97 49 220 150 170 26 -13 32 -13 42 -1 9 11 7 14 -10 14
-12 0 -21 6 -21 16 0 12 -7 14 -30 9 -19 -4 -30 -3 -30 4 0 16 -20 13 -26 -4z"/>
<path d="M276 249 l-67 -62 -27 26 c-30 29 -52 35 -52 14 0 -15 61 -77 75 -77
6 0 44 31 85 69 56 52 72 72 64 81 -9 9 -28 -4 -78 -51z"/>
</g>
<defs>
<linearGradient id="paint0_linear" x1="0" y1="0" x2="0" y2="1">
<stop offset="0.259336" stop-color="#FFDB6E"/>
<stop offset="1" stop-color="#FFBC5E"/>
</linearGradient>
</defs>
</svg>
