<svg xmlns="http://www.w3.org/2000/svg" xmlns:xlink="http://www.w3.org/1999/xlink" version="1.1" width="1000" height="1000" viewBox="0 0 1000 1000" xml:space="preserve">
<desc>Created with Fabric.js 3.5.0</desc>
<defs>
</defs>
<rect x="0" y="0" width="100%" height="100%" fill="#ffffff"/>
<g transform="matrix(0.0615 0 0 0.0615 66.4465 66.4465)" id="163180">
<g style="" vector-effect="non-scaling-stroke">
		<g transform="matrix(0.1333 0 0 -0.1333 109.681 -150.1559)">
<path style="stroke: none; stroke-width: 1; stroke-dasharray: none; stroke-linecap: butt; stroke-dashoffset: 0; stroke-linejoin: miter; stroke-miterlimit: 4; is-custom-font: none; font-file-url: none; fill: rgb(0,0,0); fill-rule: nonzero; opacity: 1;" transform=" translate(-3382.9833, -3685.8729)" d="M 3769 4060 c -414 -451 -757 -819 -761 -818 c -4 2 -180 165 -392 363 c -212 198 -390 360 -395 360 c -12 0 -343 -355 -339 -364 c 4 -9 1139 -1095 1147 -1098 c 9 -2 1853 2018 1855 2032 c 1 9 -283 283 -346 333 c -14 11 -112 -92 -769 -808 z" stroke-linecap="round"/>
</g>
		<g transform="matrix(0.1333 0 0 -0.1333 -20.5206 20.3146)">
<path style="stroke: none; stroke-width: 1; stroke-dasharray: none; stroke-linecap: butt; stroke-dashoffset: 0; stroke-linejoin: miter; stroke-miterlimit: 4; is-custom-font: none; font-file-url: none; fill: rgb(0,0,0); fill-rule: nonzero; opacity: 1;" transform=" translate(-2406.6459, -2407.0902)" d="M 1001 4598 c -315 -39 -601 -260 -724 -558 c -76 -183 -72 -91 -72 -1635 c 0 -1282 1 -1386 18 -1462 c 79 -366 354 -641 720 -720 c 76 -17 180 -18 1462 -18 c 1300 0 1385 1 1465 18 c 396 86 684 402 730 802 c 14 126 9 2796 -5 2837 c -10 26 -11 26 -102 -72 l -93 -98 l 0 -1327 c 0 -1187 -2 -1334 -16 -1398 c -56 -246 -233 -441 -479 -525 l -80 -27 l -1410 0 c -1339 0 -1413 1 -1475 18 c -248 71 -436 259 -507 507 c -17 62 -18 137 -18 1475 l 0 1410 l 27 80 c 84 246 279 423 525 479 c 65 14 213 16 1455 16 l 1383 -1 l 77 83 c 89 96 91 91 -57 114 c -74 11 -330 14 -1420 13 c -750 -1 -1362 -6 -1404 -11 z" stroke-linecap="round"/>
</g>
		<g transform="matrix(0.1333 0 0 -0.1333 -161.6305 99.0218)">
<path style="stroke: none; stroke-width: 1; stroke-dasharray: none; stroke-linecap: butt; stroke-dashoffset: 0; stroke-linejoin: miter; stroke-miterlimit: 4; is-custom-font: none; font-file-url: none; fill: rgb(0,0,0); fill-rule: nonzero; opacity: 1;" transform=" translate(-1347.9539, -1817.0847)" d="M 1265 2819 c -297 -24 -520 -184 -580 -416 c -19 -71 -19 -211 -1 -278 c 36 -138 127 -244 268 -313 c 94 -47 140 -62 400 -127 c 192 -48 283 -84 340 -134 c 106 -92 105 -256 -2 -360 c -87 -84 -196 -116 -370 -108 c -127 6 -187 22 -265 72 c -70 45 -102 83 -130 151 l -24 59 l -142 3 l -142 3 l 6 -53 c 12 -120 90 -258 193 -341 c 121 -98 276 -153 465 -164 c 268 -15 497 55 640 197 c 96 95 145 202 156 340 c 12 153 -33 294 -124 386 c -102 105 -211 154 -532 235 c -339 86 -425 134 -450 250 c -25 113 33 230 140 285 c 254 128 588 20 643 -208 l 6 -28 l 146 0 l 145 0 l -7 48 c -49 337 -358 537 -779 501 z" stroke-linecap="round"/>
</g>
		<g transform="matrix(0.1333 0 0 -0.1333 61.5783 133.0751)">
<path style="stroke: none; stroke-width: 1; stroke-dasharray: none; stroke-linecap: butt; stroke-dashoffset: 0; stroke-linejoin: miter; stroke-miterlimit: 4; is-custom-font: none; font-file-url: none; fill: rgb(0,0,0); fill-rule: nonzero; opacity: 1;" transform=" translate(-3022, -1561.75)" d="M 2865 2295 c -307 -67 -496 -345 -496 -734 c 0 -261 62 -434 205 -576 c 123 -121 252 -169 456 -170 c 217 0 366 52 485 169 c 59 59 115 151 131 218 l 6 28 l -135 0 l -134 0 l -28 -40 c -32 -46 -101 -95 -159 -113 c -23 -6 -91 -12 -151 -12 c -105 0 -114 2 -177 33 c -122 60 -190 169 -213 339 l -5 43 l 512 2 l 513 3 l -2 124 c -3 153 -28 265 -85 380 c -77 156 -225 271 -393 306 c -86 18 -249 18 -330 0 z m 309 -244 c 123 -54 188 -149 210 -308 l 6 -43 l -364 0 l -365 0 l 6 38 c 21 144 85 245 193 302 c 80 43 231 48 314 11 z" stroke-linecap="round"/>
</g>
</g>
</g>
</svg>